#!OML:ASF G:\JayActor3\Patient Classification 1\Patient 1\Session 5\male.ASF
:FULLY-SPECIFIED
:DEGREES
533
root -13.3259 15.9756 -4.07621 187.622 83.5678 173.996
lowerback 36.0226 -3.3736 3.24837
upperback 9.72249 -1.9999 -2.09367
thorax -7.37059 -0.375753 -3.24396
lowerneck 0.703633 -1.73302 1.79449
upperneck -21.5814 -0.957037 3.66497
head -6.67187 -0.597113 0.89842
rclavicle 9.93923e-015 -1.98785e-016
rhumerus -30.0029 3.86415 -88.7284
rradius 43.3654
rwrist -2.40463
rhand -21.3987 -10.7828
rfingers 7.12502
rthumb 4.9894 -40.7041
lclavicle 9.93923e-015 -1.98785e-016
lhumerus -31.2882 1.06915 82.5632
lradius 38.0176
lwrist 25.1197
lhand -20.2036 13.8931
lfingers 7.12502
lthumb 6.14326 43.784
rfemur -61.7951 -4.7095 24.0283
rtibia 79.3276
rfoot 7.76482 -9.79671
rtoes -12.367
lfemur -64.3439 11.7052 -22.9039
ltibia 85.9244
lfoot 6.41606 -2.92713
ltoes -22.7721
534
root -13.2117 15.9645 -4.06893 187.372 83.5639 173.931
lowerback 36.2168 -3.3469 3.19055
upperback 9.75979 -1.96707 -2.10354
thorax -7.39427 -0.353867 -3.23422
lowerneck 0.749597 -1.74739 1.78738
upperneck -21.647 -0.967513 3.68644
head -6.70082 -0.603564 0.907949
rclavicle -1.23246e-014 1.27222e-014
rhumerus -29.9609 3.85588 -88.7292
rradius 43.3644
rwrist -2.48404
rhand -21.317 -10.8416
rfingers 7.12502
rthumb 5.06823 -40.761
lclavicle -1.23246e-014 1.27222e-014
lhumerus -31.3872 1.12203 82.5468
lradius 37.9479
lwrist 25.1036
lhand -20.1827 13.897
lfingers 7.12502
lthumb 6.16341 43.7874
rfemur -61.376 -4.7368 24.071
rtibia 79.6853
rfoot 7.71527 -9.90545
rtoes -12.2993
lfemur -65.0752 11.7663 -23.5076
ltibia 84.8285
lfoot 5.6775 -2.74552
ltoes -23.1177
535
root -13.0977 15.9525 -4.06206 187.106 83.5554 173.83
lowerback 36.3819 -3.31762 3.12651
upperback 9.79518 -1.93532 -2.10848
thorax -7.40924 -0.333154 -3.21605
lowerneck 0.791882 -1.76162 1.78042
upperneck -21.7058 -0.977165 3.71397
head -6.72693 -0.610089 0.919305
rclavicle 1.98785e-015 -3.97569e-016
rhumerus -29.9157 3.84268 -88.7316
rradius 43.3338
rwrist -2.4689
rhand -21.3252 -10.859
rfingers 7.12502
rthumb 5.06035 -40.7786
lclavicle 1.98785e-015 -3.97569e-016
lhumerus -31.4859 1.1703 82.5334
lradius 37.8634
lwrist 25.0787
lhand -20.1821 13.9264
lfingers 7.12502
lthumb 6.16402 43.8168
rfemur -60.9844 -4.7884 24.1146
rtibia 80.0391
rfoot 7.68252 -10.0007
rtoes -12.242
lfemur -65.7799 11.815 -24.1301
ltibia 83.6227
lfoot 5.0561 -2.58157
ltoes -23.5045
536
root -12.9842 15.9422 -4.0557 186.745 83.5426 173.605
lowerback 36.5131 -3.2862 3.05297
upperback 9.82691 -1.90744 -2.11316
thorax -7.41625 -0.315057 -3.19167
lowerneck 0.82297 -1.77411 1.77771
upperneck -21.7486 -0.984886 3.7437
head -6.74597 -0.616066 0.93035
rclavicle 2.42517e-014 2.38542e-014
rhumerus -29.8689 3.81206 -88.7327
rradius 43.3005
rwrist -2.43406
rhand -21.3372 -10.8871
rfingers 7.12502
rthumb 5.0488 -40.8069
lclavicle 2.42517e-014 2.38542e-014
lhumerus -31.5842 1.21729 82.5162
lradius 37.7601
lwrist 25.0617
lhand -20.1787 13.9336
lfingers 7.12502
lthumb 6.16731 43.8238
rfemur -60.6122 -4.87045 24.1519
rtibia 80.3695
rfoot 7.67806 -10.0927
rtoes -12.1962
lfemur -66.4389 11.8501 -24.7795
ltibia 82.2866
lfoot 4.56046 -2.44429
ltoes -23.8577
537
root -12.8711 15.9342 -4.04982 186.431 83.5163 173.394
lowerback 36.6062 -3.25894 2.98694
upperback 9.8539 -1.88508 -2.11249
thorax -7.41543 -0.300588 -3.16396
lowerneck 0.844725 -1.78341 1.77803
upperneck -21.7791 -0.989236 3.77169
head -6.75945 -0.620397 0.93996
rclavicle -2.5842e-014 -5.92378e-014
rhumerus -29.8257 3.7643 -88.7311
rradius 43.2719
rwrist -2.40254
rhand -21.3596 -10.9074
rfingers 7.12502
rthumb 5.0271 -40.8277
lclavicle -2.5842e-014 -5.92378e-014
lhumerus -31.6827 1.25544 82.5035
lradius 37.6472
lwrist 25.0315
lhand -20.2005 13.9458
lfingers 7.12502
lthumb 6.14629 43.8367
rfemur -60.2604 -4.99073 24.2053
rtibia 80.6689
rfoot 7.68532 -10.1969
rtoes -12.1289
lfemur -67.055 11.8699 -25.4358
ltibia 80.8208
lfoot 4.21045 -2.3556
ltoes -24.2112
538
root -12.7576 15.9285 -4.04499 186.154 83.5017 173.204
lowerback 36.6798 -3.22849 2.92379
upperback 9.87819 -1.85991 -2.11176
thorax -7.41068 -0.285418 -3.13898
lowerneck 0.861632 -1.79017 1.78345
upperneck -21.8014 -0.99108 3.79561
head -6.76957 -0.623565 0.94716
rclavicle 2.34566e-014 3.99557e-014
rhumerus -29.7922 3.70897 -88.734
rradius 43.2213
rwrist -2.30434
rhand -21.4823 -10.8452
rfingers 7.12502
rthumb 4.9087 -40.7684
lclavicle 2.34566e-014 3.99557e-014
lhumerus -31.7838 1.28333 82.4937
lradius 37.5318
lwrist 24.9797
lhand -20.2377 13.9762
lfingers 7.12502
lthumb 6.11033 43.8681
rfemur -59.9024 -5.13285 24.2747
rtibia 80.9302
rfoot 7.71884 -10.3158
rtoes -12.0294
lfemur -67.5962 11.8979 -26.0911
ltibia 79.2264
lfoot 4.00905 -2.32682
ltoes -24.5762
539
root -12.6437 15.9244 -4.0414 186.004 83.4977 173.126
lowerback 36.7308 -3.19767 2.87519
upperback 9.90055 -1.83115 -2.10882
thorax -7.40027 -0.26922 -3.12089
lowerneck 0.873592 -1.79462 1.79087
upperneck -21.8198 -0.990437 3.81637
head -6.77766 -0.625348 0.952782
rclavicle 4.96962e-015 2.00773e-014
rhumerus -29.7663 3.64176 -88.737
rradius 43.1821
rwrist -2.23619
rhand -21.5906 -10.7949
rfingers 7.12502
rthumb 4.80404 -40.7204
lclavicle 4.96962e-015 2.00773e-014
lhumerus -31.8835 1.31083 82.4836
lradius 37.4141
lwrist 24.9158
lhand -20.2715 14.0084
lfingers 7.12502
lthumb 6.07769 43.9012
rfemur -59.5397 -5.29193 24.3709
rtibia 81.1563
rfoot 7.74826 -10.4509
rtoes -11.9266
lfemur -68.0702 11.9312 -26.728
ltibia 77.5198
lfoot 3.96574 -2.36254
ltoes -24.9396
540
root -12.5293 15.9212 -4.03923 185.985 83.5008 173.159
lowerback 36.7563 -3.16879 2.84291
upperback 9.92208 -1.80095 -2.10295
thorax -7.38214 -0.25294 -3.10903
lowerneck 0.877205 -1.79715 1.79762
upperneck -21.8365 -0.987925 3.83389
head -6.78374 -0.625728 0.95727
rclavicle -1.0138e-014 1.17283e-014
rhumerus -29.7425 3.56681 -88.7369
rradius 43.1518
rwrist -2.20019
rhand -21.6638 -10.7489
rfingers 7.12502
rthumb 4.73343 -40.676
lclavicle -1.0138e-014 1.17283e-014
lhumerus -31.9805 1.33783 82.4745
lradius 37.3042
lwrist 24.8431
lhand -20.2927 14.0581
lfingers 7.12502
lthumb 6.05724 43.9515
rfemur -59.1761 -5.46691 24.4912
rtibia 81.351
rfoot 7.76185 -10.6035
rtoes -11.8218
lfemur -68.4798 11.9584 -27.3389
ltibia 75.7111
lfoot 4.09473 -2.45134
ltoes -25.2367
541
root -12.4142 15.9188 -4.03844 186.08 83.5177 173.283
lowerback 36.7553 -3.13712 2.82328
upperback 9.94141 -1.76522 -2.09549
thorax -7.35721 -0.234807 -3.10445
lowerneck 0.887979 -1.80105 1.80121
upperneck -21.8676 -0.986064 3.85291
head -6.7957 -0.626347 0.962981
rclavicle -1.17283e-014 -2.78299e-014
rhumerus -29.7259 3.49561 -88.7404
rradius 43.1203
rwrist -2.17372
rhand -21.7276 -10.7097
rfingers 7.12502
rthumb 4.67177 -40.6382
lclavicle -1.17283e-014 -2.78299e-014
lhumerus -32.0755 1.35774 82.4675
lradius 37.2066
lwrist 24.7665
lhand -20.2994 14.134
lfingers 7.12502
lthumb 6.05076 44.0276
rfemur -58.8152 -5.63898 24.6271
rtibia 81.5187
rfoot 7.75162 -10.7772
rtoes -11.6929
lfemur -68.8343 11.9845 -27.9258
ltibia 73.8144
lfoot 4.40272 -2.59194
ltoes -25.5032
542
root -12.2988 15.9172 -4.03904 186.262 83.5493 173.468
lowerback 36.7255 -3.10154 2.81351
upperback 9.95787 -1.72395 -2.08776
thorax -7.32541 -0.214875 -3.1071
lowerneck 0.899544 -1.80802 1.80374
upperneck -21.908 -0.987578 3.87329
head -6.81077 -0.628595 0.969595
rclavicle -5.96354e-016 -2.20651e-014
rhumerus -29.7092 3.41906 -88.7428
rradius 43.107
rwrist -2.20656
rhand -21.6787 -10.7403
rfingers 7.12502
rthumb 4.71903 -40.6677
lclavicle -5.96354e-016 -2.20651e-014
lhumerus -32.169 1.37713 82.4601
lradius 37.1248
lwrist 24.7007
lhand -20.2821 14.2254
lfingers 7.12502
lthumb 6.06743 44.1185
rfemur -58.4617 -5.7979 24.7685
rtibia 81.6601
rfoot 7.72336 -10.9645
rtoes -11.5488
lfemur -69.1361 12.0071 -28.4915
ltibia 71.8356
lfoot 4.89696 -2.77114
ltoes -25.784
